# xmcd
#
# Track frame offsets:
#	150
#	14605
#	26341
#	41335
#	56609
#	70143
#	84503
#	98545
#	112388
#	125343
#	138793
#	151818
#	164722
#	177710
#	190819
#	202583
#	216832
#	228755
#	240993
#	254334
#	269033
#	282472
#	295181
#
# Disc length: 4116 seconds
# Revision: 2
# Processed by: cddbd v1.5.2PL0 Copyright (c) Steve Scherf et al.
# Submitted via: dBpowerAMP V12.0
#
DISCID=48101217
DTITLE=Various Artist - Times Ain't Like They Used to Be, Vol. 8: Early American Rural Music
DYEAR=2003
DGENRE=Country
TTITLE0=Vaughan Quartet - It's Just Like Heaven
TTITLE1=Red Headed Fiddlers - The Steeley Rag
TTITLE2="Gitfiddle Jim" - Paddlin' Blues
TTITLE3=Dilly and His Dill Pickles - Sand Mountain Drag
TTITLE4=Dock Boggs - Sugar Baby
TTITLE5=King Solomon Hill - My Buddy, Blind Papa Lemon
TTITLE6=The Stripling Brothers - The Lost Child
TTITLE7=Frank Hutchison - The Train That a Carried My Girl from Town
TTITLE8=Bo Weavil Jackson - You Can't Keep No Brown Down
TTITLE9=Wright Brothers Quartet - MotherIs With the Angels
TTITLE10=Dick Reinhart - Rambling Lover
TTITLE11=Skip James - 4 O'Clock Blues
TTITLE12=Da Costa Woltz's Southern Broadcasters - Yellow Rose of Texas
TTITLE13=Johnny Barfield - Gonna Ride Till the Sun Goes Down
TTITLE14=Ed Bell - Mamlish Blues
TTITLE15="Ted" Sharp, Hinman and Sharp - Robinson County
TTITLE16=Dennis McGee - Valse des Vachers
TTITLE17=David Earl Miller - Jailhouse Rag
TTITLE18=Tommy Johnson - I Want Someone to Love Me
TTITLE19=Uncle Dave Macon and The McGee Bros. - Tennessee Tornado
TTITLE20=Frank Jenkins - Roving Cowboy
TTITLE21=Shelor Family - Big Bend Gal
TTITLE22=Rev. W.M. Mosley - Yes! Tis Me
EXTD=
EXTT0=
EXTT1=
EXTT2=
EXTT3=
EXTT4=
EXTT5=
EXTT6=
EXTT7=
EXTT8=
EXTT9=
EXTT10=
EXTT11=
EXTT12=
EXTT13=
EXTT14=
EXTT15=
EXTT16=
EXTT17=
EXTT18=
EXTT19=
EXTT20=
EXTT21=
EXTT22=
PLAYORDER=
